<?xml version="1.0" standalone="no"?>
<!DOCTYPE svg PUBLIC "-//W3C//DTD SVG 20010904//EN"
 "http://www.w3.org/TR/2001/REC-SVG-20010904/DTD/svg10.dtd">
<svg version="1.0" xmlns="http://www.w3.org/2000/svg"
 width="2000.000000pt" height="484.000000pt" viewBox="0 0 2000.000000 484.000000"
 preserveAspectRatio="xMidYMid meet">

<g transform="translate(0.000000,484.000000) scale(0.100000,-0.100000)"
fill="#000000" stroke="none">
<path d="M2190 4819 c-917 -94 -1725 -734 -2025 -1608 -179 -520 -179 -1062 0
-1582 260 -756 901 -1345 1679 -1544 183 -47 323 -66 526 -72 787 -25 1530
333 2005 967 180 240 324 540 400 835 60 233 70 321 70 605 0 283 -10 371 -70
605 -271 1063 -1247 1813 -2345 1804 -85 -1 -193 -6 -240 -10z m583 -110 c937
-134 1704 -834 1920 -1754 47 -200 60 -314 60 -535 0 -365 -70 -678 -222 -995
-387 -809 -1193 -1317 -2086 -1316 -487 0 -929 137 -1320 409 -540 374 -893
957 -980 1615 -19 152 -19 422 0 574 102 772 573 1438 1260 1781 430 214 892
289 1368 221z"/>
<path d="M3091 3722 c-30 -15 -56 -60 -253 -448 l-219 -432 47 -16 c26 -9 62
-27 80 -41 18 -14 35 -25 38 -25 2 0 102 191 220 424 146 287 216 434 216 456
0 44 -16 69 -55 86 -42 17 -33 17 -74 -4z"/>
<path d="M2413 2720 c-66 -33 -104 -74 -146 -155 -14 -27 -41 -75 -61 -105
l-35 -55 266 -133 c146 -73 266 -132 268 -130 1 2 28 64 60 138 55 130 57 137
53 205 -5 79 -24 123 -77 178 -54 58 -104 80 -191 84 -69 4 -80 2 -137 -27z"/>
<path d="M2015 2226 c-123 -123 -240 -207 -428 -306 -172 -91 -197 -107 -197
-129 0 -29 58 -108 120 -161 l58 -50 112 117 112 118 -58 -110 c-31 -60 -65
-124 -76 -141 l-18 -32 70 -46 c38 -25 98 -62 132 -81 l63 -34 135 214 c74
117 136 211 137 207 1 -4 -31 -113 -72 -242 -40 -129 -70 -239 -66 -243 12
-12 190 -87 221 -93 26 -6 27 -5 100 200 41 113 75 204 77 202 2 -2 -13 -101
-32 -221 -20 -120 -34 -219 -33 -220 2 -2 35 -10 75 -19 100 -22 194 -21 224
3 l23 18 -23 142 c-43 271 -46 398 -14 596 8 55 16 106 17 113 0 7 -122 75
-279 156 l-280 144 -100 -102z"/>
<path d="M3123 1512 c-32 -5 -63 -49 -63 -87 0 -25 8 -40 31 -59 40 -34 74
-33 110 3 64 64 13 157 -78 143z"/>
<path d="M2906 1219 c-30 -35 -33 -65 -10 -97 13 -18 25 -22 73 -22 68 0 83
12 83 67 0 78 -95 113 -146 52z"/>
<path d="M3352 1230 c-30 -28 -38 -68 -21 -99 13 -23 22 -26 74 -29 68 -4 85
9 85 65 0 70 -87 110 -138 63z"/>
<path d="M5813 3420 c-147 -19 -274 -81 -333 -162 -89 -122 -74 -294 32 -384
96 -81 226 -100 464 -69 223 29 334 12 369 -55 50 -97 -29 -183 -195 -209
-191 -31 -424 6 -601 95 l-67 33 -56 -84 c-31 -47 -56 -87 -56 -89 0 -2 43
-23 95 -45 369 -162 837 -140 1025 48 122 122 121 330 0 434 -74 63 -135 81
-285 81 -71 1 -191 -5 -265 -13 -160 -17 -219 -11 -261 27 -66 61 -38 139 66
182 54 21 74 24 195 24 146 0 253 -17 373 -61 38 -13 70 -23 72 -21 18 22 85
160 80 167 -9 15 -184 69 -278 85 -110 20 -285 27 -374 16z"/>
<path d="M19245 3420 c-313 -50 -505 -281 -482 -580 19 -234 174 -411 418
-477 87 -23 281 -23 367 0 97 26 190 76 258 139 165 154 210 416 107 628 -60
123 -206 235 -360 274 -78 21 -229 28 -308 16z m211 -191 c85 -16 155 -52 208
-109 75 -81 103 -177 85 -291 -24 -148 -130 -254 -287 -288 -202 -43 -411 56
-469 221 -28 81 -24 198 9 270 72 156 251 234 454 197z"/>
<path d="M6790 2885 l0 -525 110 0 110 0 0 525 0 525 -110 0 -110 0 0 -525z"/>
<path d="M7280 2885 l0 -525 460 0 460 0 0 90 0 90 -350 0 -350 0 0 150 0 150
300 0 300 0 0 85 0 85 -300 0 -300 0 0 110 0 110 340 0 340 0 0 90 0 90 -450
0 -450 0 0 -525z"/>
<path d="M8440 2885 l0 -525 105 0 105 0 0 375 c0 206 3 375 8 375 4 0 39 -32
77 -71 39 -39 123 -120 187 -181 l117 -110 188 182 188 181 3 -375 2 -376 109
0 108 0 0 525 0 525 -111 0 -111 0 -190 -190 -190 -190 -190 190 -190 190
-107 0 -108 0 0 -525z"/>
<path d="M9940 2885 l0 -525 105 0 105 0 0 140 0 140 219 0 c120 0 240 4 267
9 145 28 249 101 300 213 25 56 29 74 29 163 0 119 -20 186 -78 250 -49 57
-111 92 -204 115 -68 18 -111 20 -410 20 l-333 0 0 -525z m650 334 c85 -19
139 -76 154 -162 11 -58 -16 -138 -59 -176 -58 -51 -114 -61 -337 -61 l-198 0
0 205 0 205 198 0 c108 0 217 -5 242 -11z"/>
<path d="M11210 2885 l0 -525 105 0 105 0 0 150 0 150 165 0 165 0 100 -150
100 -150 130 0 130 0 -105 154 c-57 84 -107 160 -110 167 -3 9 11 23 40 38 64
34 139 119 162 183 27 79 24 226 -6 295 -45 102 -153 177 -295 204 -27 5 -192
9 -367 9 l-319 0 0 -525z m685 315 c70 -35 95 -76 95 -157 0 -72 -15 -108 -60
-147 -55 -46 -114 -56 -322 -56 l-188 0 0 196 0 196 213 -4 c203 -3 214 -4
262 -28z"/>
<path d="M12480 2885 l0 -525 455 0 455 0 0 90 0 90 -350 0 -350 0 0 150 0
150 305 0 305 0 0 85 0 85 -305 0 -305 0 0 110 0 110 340 0 340 0 0 90 0 90
-445 0 -445 0 0 -525z"/>
<path d="M14090 2885 l0 -525 415 0 415 0 0 90 0 90 -307 2 -308 3 -3 433 -2
432 -105 0 -105 0 0 -525z"/>
<path d="M15100 2885 l0 -525 105 0 105 0 0 525 0 525 -105 0 -105 0 0 -525z"/>
<path d="M15590 2885 l0 -525 105 0 105 0 0 375 c0 206 3 375 6 375 4 0 91
-81 195 -181 l189 -181 185 178 c103 99 189 180 193 182 4 1 7 -167 7 -373 l0
-375 107 0 108 0 0 525 0 525 -107 0 -108 0 -192 -192 -193 -193 -193 193
-192 192 -108 0 -107 0 0 -525z"/>
<path d="M17090 2885 l0 -525 105 0 104 0 3 138 3 137 250 5 c226 5 256 8 310
28 128 47 209 128 242 241 22 77 14 219 -17 289 -43 100 -154 176 -294 203
-27 5 -197 9 -377 9 l-329 0 0 -525z m705 314 c60 -30 91 -74 101 -137 14 -93
-25 -169 -111 -215 -37 -20 -58 -22 -262 -25 l-223 -4 0 200 c0 109 3 202 7
206 5 4 105 6 223 4 208 -3 217 -4 265 -29z"/>
<path d="M18330 2885 l0 -525 110 0 110 0 0 525 0 525 -110 0 -110 0 0 -525z"/>
<path d="M5383 2074 c-10 -4 -13 -80 -13 -330 l0 -325 38 3 37 3 3 136 3 137
107 4 c115 4 151 16 196 65 50 53 57 163 15 232 -33 55 -93 74 -244 78 -71 1
-136 0 -142 -3z m249 -74 c52 -15 78 -51 78 -111 0 -40 -5 -55 -29 -81 -29
-33 -31 -33 -130 -36 l-101 -4 0 121 0 121 73 0 c39 0 89 -5 109 -10z"/>
<path d="M6112 2072 c-9 -6 -12 -79 -10 -328 l3 -319 38 -3 37 -3 0 147 0 147
81 -5 c104 -6 119 -21 179 -170 l45 -113 40 0 c48 0 49 -7 -13 149 -27 68 -59
132 -75 150 -17 17 -24 32 -18 34 25 8 69 53 81 82 18 43 9 144 -16 171 -39
44 -99 61 -233 66 -69 2 -132 0 -139 -5z m239 -72 c20 -6 44 -19 53 -29 27
-29 32 -93 11 -129 -29 -48 -63 -62 -154 -62 l-81 0 0 108 c0 60 3 112 7 115
10 11 123 8 164 -3z"/>
<path d="M6998 2065 c-61 -23 -106 -63 -132 -118 -50 -103 -55 -252 -14 -365
42 -113 125 -166 264 -166 70 -1 88 3 140 29 110 56 151 154 141 340 -5 110
-20 154 -69 210 -51 59 -100 78 -203 82 -61 2 -102 -2 -127 -12z m212 -75 c90
-46 132 -188 99 -339 -27 -125 -127 -190 -248 -161 -107 25 -157 120 -149 284
6 122 44 195 118 225 44 17 137 13 180 -9z"/>
<path d="M7743 2064 c-7 -15 -11 -582 -4 -634 1 -6 55 -10 141 -10 170 0 226
16 289 85 57 62 74 128 69 264 -6 163 -49 238 -164 287 -28 13 -78 18 -180 22
-131 4 -143 3 -151 -14z m264 -65 c105 -27 161 -131 150 -281 -6 -97 -33 -156
-89 -194 -38 -27 -50 -29 -145 -32 l-103 -4 0 261 0 261 71 0 c38 0 91 -5 116
-11z"/>
<path d="M8564 2067 c-3 -8 -4 -124 -2 -258 3 -239 4 -245 28 -289 20 -35 38
-51 85 -75 52 -26 71 -30 140 -30 44 1 97 7 119 14 52 18 112 74 127 119 15
45 20 501 6 520 -12 15 -49 16 -65 0 -9 -9 -12 -78 -12 -248 0 -266 -3 -280
-76 -315 -85 -42 -197 -20 -248 48 -20 27 -21 44 -26 275 l-5 247 -33 3 c-21
2 -34 -2 -38 -11z"/>
<path d="M9590 2071 c-82 -25 -148 -90 -176 -172 -24 -73 -24 -223 0 -304 23
-77 88 -144 162 -166 101 -29 266 -9 305 37 17 21 -8 68 -30 58 -9 -4 -42 -16
-75 -27 -51 -18 -66 -19 -122 -10 -122 21 -165 80 -172 234 -7 159 33 246 127
278 53 17 143 14 195 -9 l46 -19 17 26 c16 25 16 26 -6 44 -12 10 -39 23 -59
29 -42 11 -175 12 -212 1z"/>
<path d="M10137 2074 c-4 -4 -7 -20 -7 -35 l0 -28 98 -3 97 -3 3 -293 2 -293
38 3 37 3 3 293 2 292 96 0 95 0 -3 33 -3 32 -226 3 c-124 1 -228 -1 -232 -4z"/>
<path d="M11036 2065 c-95 -36 -149 -116 -168 -246 -18 -130 18 -275 84 -336
77 -72 236 -91 340 -40 61 30 97 70 125 138 14 34 18 72 18 169 0 109 -3 131
-23 175 -28 61 -64 100 -117 128 -52 27 -201 34 -259 12z m214 -75 c90 -46
132 -188 99 -339 -27 -126 -127 -190 -250 -161 -106 26 -155 119 -147 284 6
122 44 195 118 225 44 17 137 13 180 -9z"/>
<path d="M11835 2062 c-91 -44 -129 -137 -91 -225 19 -46 53 -73 127 -103 106
-43 138 -63 155 -95 33 -64 -12 -140 -91 -155 -38 -7 -110 8 -158 33 -28 14
-31 14 -44 -3 -22 -30 -12 -47 41 -73 72 -36 192 -36 256 -1 108 61 123 222
26 294 -17 13 -70 40 -118 61 -47 20 -94 45 -103 55 -37 40 -12 130 41 150 39
15 110 12 150 -7 35 -17 36 -17 50 2 8 10 14 25 14 32 0 44 -183 69 -255 35z"/>
<path d="M12852 2072 c-9 -6 -12 -79 -10 -328 l3 -319 155 0 c147 0 158 1 205
26 57 29 109 91 127 152 7 23 13 92 13 152 -1 94 -4 118 -24 163 -27 61 -92
122 -148 141 -45 15 -302 26 -321 13z m311 -95 c68 -40 99 -109 99 -219 1
-198 -64 -267 -249 -268 l-93 0 0 261 0 262 99 -5 c84 -4 106 -9 144 -31z"/>
<path d="M13692 2072 c-9 -7 -12 -79 -10 -328 l3 -319 179 -3 c104 -1 184 2
189 7 5 5 7 21 3 35 l-6 26 -145 0 -145 0 0 115 0 114 133 3 132 3 0 30 0 30
-132 3 -133 3 0 109 0 110 144 0 c137 0 145 1 151 20 14 45 -6 50 -184 50 -91
0 -172 -4 -179 -8z"/>
<path d="M14795 2068 c-3 -7 -4 -155 -3 -328 l3 -315 178 -3 178 -2 -3 32 -3
33 -137 3 -138 3 -2 292 -3 292 -33 3 c-20 2 -34 -2 -37 -10z"/>
<path d="M15435 2068 c-3 -7 -4 -155 -3 -328 l3 -315 38 -3 37 -3 -2 328 -3
328 -33 3 c-20 2 -34 -2 -37 -10z"/>
<path d="M15881 2066 c-8 -9 -11 -104 -9 -327 l3 -314 38 -3 37 -3 0 261 c0
147 4 259 9 256 5 -3 44 -68 86 -143 105 -186 111 -193 145 -193 26 0 36 13
127 171 l98 170 3 -261 2 -261 38 3 37 3 0 325 0 325 -29 3 c-61 7 -67 0 -176
-194 -94 -169 -105 -184 -114 -163 -12 29 -184 329 -198 347 -14 16 -83 15
-97 -2z"/>
<path d="M16863 2074 c-10 -4 -13 -80 -13 -330 l0 -325 38 3 37 3 3 136 3 137
107 4 c115 4 151 16 196 65 49 53 56 165 15 233 -33 54 -93 73 -244 77 -71 1
-136 0 -142 -3z m249 -74 c52 -15 78 -51 78 -111 0 -40 -5 -55 -29 -81 -29
-33 -31 -33 -130 -36 l-101 -4 0 121 0 121 73 0 c39 0 89 -5 109 -10z"/>
<path d="M17585 2068 c-3 -7 -4 -155 -3 -328 l3 -315 38 -3 37 -3 -2 328 -3
328 -33 3 c-20 2 -34 -2 -37 -10z"/>
<path d="M18042 2072 c-9 -7 -12 -79 -10 -328 l3 -319 185 0 185 0 0 30 0 30
-147 3 -148 3 0 114 0 114 133 3 132 3 0 30 0 30 -133 3 -133 3 3 107 3 107
140 3 c77 1 144 7 149 12 4 4 6 20 2 34 l-6 26 -173 0 c-94 0 -178 -4 -185 -8z"/>
<path d="M18717 2073 c-4 -3 -7 -19 -7 -35 l0 -28 175 0 c96 0 175 -3 175 -6
0 -3 -86 -122 -191 -265 -155 -211 -190 -264 -187 -286 l3 -28 243 -3 242 -2
0 35 0 35 -189 2 -190 3 181 245 c231 315 210 282 199 314 l-11 26 -218 0
c-120 0 -222 -3 -225 -7z"/>
<path d="M19639 2053 c-45 -118 -219 -609 -219 -620 0 -10 10 -13 38 -11 37 3
37 3 66 86 l28 82 138 0 138 0 30 -82 30 -83 41 -3 c22 -2 41 0 41 5 0 15
-223 628 -233 641 -5 6 -27 12 -48 12 -34 0 -41 -4 -50 -27z m119 -267 c23
-65 42 -120 42 -122 0 -2 -50 -4 -111 -4 -95 0 -110 2 -105 15 3 8 29 83 57
166 l52 151 12 -43 c7 -24 31 -97 53 -163z"/>
</g>
</svg>
