<?xml version="1.0" standalone="no"?>
<!DOCTYPE svg PUBLIC "-//W3C//DTD SVG 20010904//EN"
 "http://www.w3.org/TR/2001/REC-SVG-20010904/DTD/svg10.dtd">
<svg version="1.0" xmlns="http://www.w3.org/2000/svg"
 width="497.000000pt" height="485.000000pt" viewBox="0 0 497.000000 485.000000"
 preserveAspectRatio="xMidYMid meet">

<g transform="translate(0.000000,485.000000) scale(0.100000,-0.100000)"
fill="#000000" stroke="none">
<path d="M2190 4829 c-917 -94 -1725 -734 -2025 -1608 -179 -520 -179 -1062 0
-1582 260 -756 901 -1345 1679 -1544 183 -47 323 -66 526 -72 787 -25 1530
333 2005 967 180 240 324 540 400 835 60 233 70 321 70 605 0 283 -10 371 -70
605 -271 1063 -1247 1813 -2345 1804 -85 -1 -193 -6 -240 -10z m583 -110 c937
-134 1704 -834 1920 -1754 47 -200 60 -314 60 -535 0 -365 -70 -678 -222 -995
-387 -809 -1193 -1317 -2086 -1316 -487 0 -929 137 -1320 409 -540 374 -893
957 -980 1615 -19 152 -19 422 0 574 102 772 573 1438 1260 1781 430 214 892
289 1368 221z"/>
<path d="M3091 3732 c-30 -15 -56 -60 -253 -448 l-219 -432 47 -16 c26 -9 62
-27 80 -41 18 -14 35 -25 38 -25 2 0 102 191 220 424 146 287 216 434 216 456
0 44 -16 69 -55 86 -42 17 -33 17 -74 -4z"/>
<path d="M2413 2730 c-66 -33 -104 -74 -146 -155 -14 -27 -41 -75 -61 -105
l-35 -55 266 -133 c146 -73 266 -132 268 -130 1 2 28 64 60 138 55 130 57 137
53 205 -5 79 -24 123 -77 178 -54 58 -104 80 -191 84 -69 4 -80 2 -137 -27z"/>
<path d="M2015 2236 c-123 -123 -240 -207 -428 -306 -172 -91 -197 -107 -197
-129 0 -29 58 -108 120 -161 l58 -50 112 117 112 118 -58 -110 c-31 -60 -65
-124 -76 -141 l-18 -32 70 -46 c38 -25 98 -62 132 -81 l63 -34 135 214 c74
117 136 211 137 207 1 -4 -31 -113 -72 -242 -40 -129 -70 -239 -66 -243 12
-12 190 -87 221 -93 26 -6 27 -5 100 200 41 113 75 204 77 202 2 -2 -13 -101
-32 -221 -20 -120 -34 -219 -33 -220 2 -2 35 -10 75 -19 100 -22 194 -21 224
3 l23 18 -23 142 c-43 271 -46 398 -14 596 8 55 16 106 17 113 0 7 -122 75
-279 156 l-280 144 -100 -102z"/>
<path d="M3123 1522 c-32 -5 -63 -49 -63 -87 0 -25 8 -40 31 -59 40 -34 74
-33 110 3 64 64 13 157 -78 143z"/>
<path d="M2906 1229 c-30 -35 -33 -65 -10 -97 13 -18 25 -22 73 -22 68 0 83
12 83 67 0 78 -95 113 -146 52z"/>
<path d="M3352 1240 c-30 -28 -38 -68 -21 -99 13 -23 22 -26 74 -29 68 -4 85
9 85 65 0 70 -87 110 -138 63z"/>
</g>
</svg>
